<svg id="Capa_1" data-name="Capa 1" xmlns="http://www.w3.org/2000/svg" viewBox="0 0 100 100"><defs><style>.cls-1{fill:#4e2773;}</style></defs><path class="cls-1" d="M9.47,49V15.82h7.07V29.36H27.07L37.46,15.82h8.8l-13,16.56,13,16.6h-8.8L27,35.4H16.54V49Z"/><path class="cls-1" d="M75.56,15.73H64.07L49.09,49l15,35.29H75.56L90.53,49Zm-6,5.81h.6l6.47,14.37H63Zm.6,56.56h-.6L57.18,49l3.17-7H79.28l3.16,7Z"/><path class="cls-1" d="M46.23,65.25h-19V78.18c-3.28-.16-5.78-1.09-7.48-2.81s-2.56-4.38-2.56-8c0-3.78,1-6.53,2.9-8.23s4.94-2.56,9-2.56H46.23V50.55H28.56q-9.25,0-14.11,4.26T9.59,67.39q0,8.37,4.76,12.63t13.28,4.25h18.6Zm-12,13V71.3h6.42v6.93Z"/><path class="cls-1" d="M93.19,93H6.81A5.78,5.78,0,0,1,1,87.26V12.74A5.78,5.78,0,0,1,6.81,7H93.19A5.79,5.79,0,0,1,99,12.74V87.26A5.79,5.79,0,0,1,93.19,93ZM6.81,10.84a1.91,1.91,0,0,0-1.9,1.9V87.26a1.91,1.91,0,0,0,1.9,1.9H93.19a1.91,1.91,0,0,0,1.9-1.9V12.74a1.91,1.91,0,0,0-1.9-1.9Z"/></svg>